<svg width="24" height="25" viewBox="0 0 24 25" fill="none" xmlns="http://www.w3.org/2000/svg">
<path id="Vector" d="M12 0.5C5.376 0.5 0 5.876 0 12.5C0 19.124 5.376 24.5 12 24.5C18.624 24.5 24 19.124 24 12.5C24 5.876 18.624 0.5 12 0.5ZM12 4.1C13.992 4.1 15.6 5.708 15.6 7.7C15.6 9.692 13.992 11.3 12 11.3C10.008 11.3 8.4 9.692 8.4 7.7C8.4 5.708 10.008 4.1 12 4.1ZM12 21.14C9 21.14 6.348 19.604 4.8 17.276C4.836 14.888 9.6 13.58 12 13.58C14.388 13.58 19.164 14.888 19.2 17.276C17.652 19.604 15 21.14 12 21.14Z" fill="#0A905D"/>
</svg>
